<svg width="30" height="30" xmlns="http://www.w3.org/2000/svg"><g fill="none" fill-rule="evenodd"><rect stroke="#30A2E1" x=".5" y=".5" width="29" height="29" rx="14.5"/><g fill="#30A2E1"><path d="M7.365 14.189l6.656 3.445a2 2 0 001.827.007l6.789-3.456a.25.25 0 01.363.223V19a2 2 0 01-2 2H9a2 2 0 01-2-2v-4.59a.25.25 0 01.365-.221z"/><path d="M8.092 10h13.816c.603 0 1.092.489 1.092 1.092v.807a.5.5 0 01-.244.43l-6.81 4.055a2 2 0 01-2.064-.01L7.24 12.329a.5.5 0 01-.24-.427v-.81C7 10.489 7.489 10 8.092 10z"/></g></g></svg>