<svg width="70" height="70" viewBox="0 0 70 70" fill="none" xmlns="http://www.w3.org/2000/svg">
<g clip-path="url(#clip0_727_1064)">
<path d="M57.5322 22.2256H14.5026L17.914 16.7745H54.1208L57.5322 22.2256Z" fill="#7CA6A5"/>
<path d="M28.2169 18.3891V12.8598C28.2169 8.77949 31.523 5.46283 35.5801 5.46283C39.6372 5.46283 42.9433 8.78409 42.9433 12.8598V18.3891H44.3994V12.8598C44.404 7.97448 40.4431 4 35.5801 4C30.7171 4 26.7608 7.97448 26.7608 12.8598V18.3891H28.2169Z" fill="#3F3F3F"/>
<path d="M35.6259 4C35.6259 4 35.5984 4 35.5847 4C30.7217 4 26.7654 7.97448 26.7654 12.8598V18.3891H28.2215V12.8598C28.2215 8.77949 31.5276 5.46283 35.5847 5.46283C35.5984 5.46283 35.6122 5.46283 35.6259 5.46283V4Z" fill="black"/>
<path d="M38.5062 9.44653H18.8528V37.3599H38.5062V9.44653Z" fill="#BCCF30"/>
<path d="M28.6795 9.44653H18.8528V37.3599H28.6795V9.44653Z" fill="#8E9A06"/>
<path d="M54.7765 15.1036L41.7737 11.3752L36.8019 28.8744L49.8046 32.6027L54.7765 15.1036Z" fill="#BCCF30"/>
<path d="M48.2713 13.2364L41.7721 11.3729L36.8002 28.872L43.2994 30.7355L48.2713 13.2364Z" fill="#8E9A06"/>
<path d="M42.0914 14.5161L25.8442 16.9379L29.0742 38.8065L45.3215 36.3847L42.0914 14.5161Z" fill="#FFBC40"/>
<path d="M33.9668 15.7324L25.8409 16.9437L29.0709 38.8123L37.1968 37.601L33.9668 15.7324Z" fill="#FE9102"/>
<path d="M59.9042 60.7835H12.1261L14.5026 22.1428H57.5322L59.9042 60.7835Z" fill="#A1C3B5"/>
<path d="M35.6259 22.1428H14.5026L12.1261 60.7835H36.0151L35.6259 22.1428Z" fill="#7CA6A5"/>
<path d="M42.9478 27.1706V32.4193C42.9478 36.5042 39.6509 39.8163 35.5847 39.8163C31.5185 39.8163 28.2215 36.5042 28.2215 32.4193V27.1706C28.2215 26.7658 27.8964 26.4392 27.4935 26.4392C27.0905 26.4392 26.7654 26.7658 26.7654 27.1706V32.3089C26.7654 37.093 30.4973 41.0997 35.2596 41.2745C40.2737 41.4585 44.4086 37.415 44.4086 32.4193V27.1706C44.4086 26.7658 44.0834 26.4392 43.6805 26.4392C43.2775 26.4392 42.9524 26.7658 42.9524 27.1706H42.9478Z" fill="#3F3F3F"/>
<path d="M35.7633 39.8163C31.7108 39.7979 28.2124 36.4904 28.2124 32.4193V27.1706C28.2124 26.7658 27.8873 26.4392 27.4843 26.4392C27.0813 26.4392 26.7562 26.7658 26.7562 27.1706V32.3089C26.7562 37.093 30.4882 41.0997 35.2504 41.2745C35.3466 41.2745 35.6625 41.2745 35.7587 41.2745V39.8117L35.7633 39.8163Z" fill="black"/>
<path d="M27.4935 29.3971C28.6265 29.3971 29.5449 28.4744 29.5449 27.3362C29.5449 26.1981 28.6265 25.2754 27.4935 25.2754C26.3605 25.2754 25.4421 26.1981 25.4421 27.3362C25.4421 28.4744 26.3605 29.3971 27.4935 29.3971Z" fill="black"/>
<path d="M43.7813 29.3971C44.9143 29.3971 45.8327 28.4744 45.8327 27.3362C45.8327 26.1981 44.9143 25.2754 43.7813 25.2754C42.6483 25.2754 41.7299 26.1981 41.7299 27.3362C41.7299 28.4744 42.6483 29.3971 43.7813 29.3971Z" fill="#3F3F3F"/>
<path d="M21.8429 59.1321C20.46 60.5489 18.5322 61.4275 16.3984 61.4275C13.8433 61.4275 11.5812 60.1625 10.1983 58.2259C7.85382 58.1891 5.95351 56.326 5.83445 53.9938C4.17225 54.6654 2.99542 56.2938 2.99542 58.2029C2.99542 60.6869 4.98274 62.7017 7.44171 62.7431C8.85206 64.712 11.1508 66 13.7471 66C15.9176 66 17.8728 65.1076 19.2832 63.6632C19.9701 63.9438 20.721 64.1002 21.5086 64.1002C24.659 64.1002 27.2279 61.6115 27.3744 58.4835C26.4311 59.1597 25.2726 59.5599 24.0225 59.5599C23.2487 59.5599 22.5114 59.4081 21.8383 59.1275L21.8429 59.1321Z" fill="#E6E9F2"/>
<path d="M21.5132 52.3055C20.7256 52.3055 19.9747 52.4619 19.2878 52.7425C17.882 51.3027 15.9222 50.4057 13.7517 50.4057C11.1508 50.4057 8.85208 51.6891 7.44631 53.6626C6.8785 53.6718 6.33359 53.7914 5.83447 53.9938C5.95353 56.3306 7.84927 58.1891 10.1983 58.2259C11.5812 60.1625 13.8433 61.4275 16.3984 61.4275C18.5323 61.4275 20.4555 60.5489 21.8429 59.1321C22.5161 59.4081 23.2533 59.5645 24.0271 59.5645C25.2772 59.5645 26.4312 59.1643 27.379 58.4881C27.379 58.3961 27.3882 58.2995 27.3882 58.2075C27.3882 54.9506 24.7598 52.3101 21.5178 52.3101L21.5132 52.3055Z" fill="#FFFDFE"/>
<path d="M63.3523 17.0596C62.1938 18.2465 60.5773 18.9825 58.7915 18.9825C56.6485 18.9825 54.7573 17.9245 53.5942 16.3006C51.6298 16.2684 50.0363 14.709 49.9401 12.754C48.5481 13.3152 47.5636 14.6814 47.5636 16.2822C47.5636 18.3661 49.2258 20.0543 51.291 20.0865C52.4724 21.7379 54.4002 22.8144 56.5752 22.8144C58.3931 22.8144 60.037 22.0645 61.2138 20.8593C61.7908 21.0939 62.4181 21.2273 63.0775 21.2273C65.7151 21.2273 67.8718 19.1389 67.9954 16.5214C67.2033 17.0919 66.2325 17.4277 65.1885 17.4277C64.5382 17.4277 63.9201 17.2989 63.3568 17.0643L63.3523 17.0596Z" fill="#E6E9F2"/>
<path d="M63.0775 11.3372C62.4181 11.3372 61.7908 11.4706 61.2138 11.7052C60.0324 10.4999 58.3931 9.75012 56.5752 9.75012C54.3956 9.75012 52.4678 10.8265 51.291 12.478C50.8147 12.4872 50.3614 12.5838 49.9401 12.754C50.0409 14.709 51.6298 16.2684 53.5942 16.3006C54.7527 17.9245 56.6485 18.9825 58.7915 18.9825C60.5773 18.9825 62.1937 18.2465 63.3522 17.0597C63.9155 17.2943 64.5336 17.4231 65.1839 17.4231C66.2325 17.4231 67.1987 17.0873 67.9908 16.5169C67.9908 16.4387 67.9954 16.3605 67.9954 16.2822C67.9954 13.5498 65.7929 11.3372 63.0729 11.3372H63.0775Z" fill="#FFFDFE"/>
</g>
<defs>
<clipPath id="clip0_727_1064">
<rect width="65" height="62" fill="white" transform="translate(3 4)"/>
</clipPath>
</defs>
</svg>
